<?xml version="1.0" encoding="UTF-8"?>
<svg width="30px" height="30px" viewBox="0 0 30 30" version="1.1" xmlns="http://www.w3.org/2000/svg" xmlns:xlink="http://www.w3.org/1999/xlink">
    <title>Group 8</title>
    <g id="Page-1" stroke="none" stroke-width="1" fill="none" fill-rule="evenodd">
        <g id="4_GSR-CT_Website" transform="translate(-144.000000, -497.000000)">
            <g id="Group" transform="translate(144.000000, 241.000000)">
                <g id="Group-8" transform="translate(0.000000, 256.000000)">
                    <path d="M29.2188927,7.38317757 C29.2188927,7.38317757 28.2543598,2.77258567 24.0850885,1.15264798 C22.1249088,0.404984424 18.5468028,0.031152648 15.0309249,0 C11.4839329,0.031152648 7.905827,0.404984424 5.94564724,1.15264798 C1.776376,2.77258567 0.8118431,7.38317757 0.8118431,7.38317757 C0.189563811,10 -0.0282339401,12.6479751 0.0028800244,14.9844237 C0.0028800244,17.3520249 0.189563811,20 0.8118431,22.6168224 C0.8118431,22.6168224 1.776376,27.2274143 5.94564724,28.847352 C7.905827,29.5950156 11.4839329,29.9688474 14.9998109,30 C18.5156889,29.9688474 22.0937948,29.6261682 24.0539746,28.847352 C28.2232458,27.2274143 29.1877787,22.6168224 29.1877787,22.6168224 C29.810058,20 30.0278557,17.3520249 29.9967418,15.0155763 C30.0278557,12.6479751 29.8411719,10 29.2188927,7.38317757 Z" id="Combined-Shape" fill="#00985A"></path>
                    <path d="M13.2492991,8.69233428 C13.7410901,9.40205745 14.0987562,10.3335691 14.2775893,11.3537962 C14.3670058,11.7530155 14.0540479,12.0635194 13.7857983,12.2853079 L12.8022164,12.9063156 C12.0868841,13.3942503 15.395296,18.6728164 16.1553366,18.2735972 L17.1836268,17.6525894 C17.4518765,17.4751586 17.8989592,17.3420855 18.211917,17.6082317 C19.0613742,18.2292395 19.7319982,18.9389626 20.1790809,19.6930435 C20.4920388,20.1809782 20.4920388,20.6245552 19.9555396,20.8907014 L18.1225005,22.0440015 C14.6352555,23.8183095 7.07955785,11.7973732 10.2091367,9.49077285 L12.0868841,8.38183039 C12.578675,7.9826111 12.9363412,8.20439959 13.2492991,8.69233428 Z" id="Path" fill="#FFFFFF"></path>
                </g>
            </g>
        </g>
    </g>
</svg>