<?xml version="1.0" encoding="UTF-8"?>
<svg width="137px" height="52px" viewBox="0 0 137 52" version="1.1" xmlns="http://www.w3.org/2000/svg" xmlns:xlink="http://www.w3.org/1999/xlink">
    <title>Group Copy 3</title>
    <defs>
        <path d="M26.1851525,0.0130602714 C28.2897325,0.0953234791 30.3601629,0.451031081 32.3771798,1.06912352 C34.5038382,1.72082955 36.5109729,2.63287006 38.3978335,3.81040202 C40.046835,4.83949983 41.5337821,6.06580567 42.9185306,7.41792949 C43.2875388,7.77828525 43.6181597,8.17740771 43.9884396,8.58746082 C41.231285,8.75701842 38.8655503,10.5825981 38.0657401,13.2452052 L38.314023,13.5143539 C34.6243626,9.43058212 30.0347407,7.36561406 24.5405291,7.47757652 C20.4887951,7.56021253 16.8593031,8.95234956 13.7685745,11.5596086 C10.2369655,14.5387297 8.16672279,18.3564508 7.67993429,22.9418169 C7.19439669,27.5160614 8.40996068,31.6566842 11.2318079,35.3761742 C10.812443,35.4559521 10.4252263,35.5624469 10.03163,35.5966818 C9.45458891,35.6467605 8.87148096,35.6820516 8.29362679,35.6585035 C6.70154132,35.5937616 5.21684578,35.1531812 3.83947763,34.3450881 C3.01244379,33.8598967 2.31018743,33.2349076 1.6171252,32.5827045 C1.0869304,32.0837819 0.901671818,31.4549406 0.770827472,30.7995687 C0.538847703,29.6381912 0.296172722,28.4748875 0.153319718,27.3008971 C-0.0251839924,25.8338285 -0.0460115101,24.3524073 0.0813928549,22.8775721 C0.317750781,20.1413263 0.944139939,17.4957938 2.05212635,14.9734696 C2.90861893,13.0235085 3.99771672,11.2126617 5.31704303,9.53092584 C6.16953271,8.44423135 7.11565241,7.4479394 8.12725683,6.51843971 C10.2071315,4.60724918 12.5593901,3.09811696 15.1688967,1.99048387 C16.7978838,1.29913741 18.4830364,0.783811852 20.2186629,0.446371156 C21.0258699,0.289487017 21.8485881,0.184545508 22.6693049,0.129061336 C23.8390233,0.050029009 25.0161846,-0.0326069928 26.1851525,0.0130602714 Z" id="path-1"></path>
    </defs>
    <g id="Page-1" stroke="none" stroke-width="1" fill="none" fill-rule="evenodd">
        <g id="1_GSR-CT_Website" transform="translate(-30.000000, -34.000000)">
            <g id="Group-Copy-3" transform="translate(30.001015, 34.999080)">
                <g id="Group-86-Copy" transform="translate(25.257477, 31.425835) rotate(-20.000000) translate(-25.257477, -31.425835) translate(23.168586, 29.360272)" fill="#FEFEFE">
                    <path d="M2.10117655,4.13106548 C0.971656918,4.13959975 0.00897677383,3.2272428 7.69964625e-05,2.1398399 C-0.00970022375,0.95370112 0.912868247,0.00770544945 2.08676142,4.32956567e-05 C3.20800802,-0.00730738847 4.15715047,0.922304978 4.17745701,2.04770718 C4.19782621,3.1749159 3.25363504,4.12234433 2.10117655,4.13106548" id="Fill-66"></path>
                </g>
                <g id="Group-113-Copy" transform="translate(22.827068, 25.000920) rotate(-2.000000) translate(-22.827068, -25.000920) translate(0.832848, 0.752816)">
                    <g id="Path-3" transform="translate(0.000000, -0.000000)">
                        <mask id="mask-2" fill="white">
                            <use xlink:href="#path-1"></use>
                        </mask>
                        <use id="Mask" fill="#29486D" xlink:href="#path-1"></use>
                    </g>
                    <path d="M17.1736079,27.1766746 C17.312665,27.405723 17.4363839,27.6457972 17.5935286,27.8618544 C18.2081678,28.7071475 19.0640228,29.1822623 20.0727779,29.3973128 C20.9621068,29.5868602 21.8602143,29.6184993 22.7703319,29.5600627 C24.2557302,29.46457 25.7143108,29.2062314 27.1690326,28.9176917 C28.6424691,28.6254609 30.1084776,28.2950713 31.5855316,28.0230224 C32.525361,27.8499178 33.4772006,27.7339075 34.4276896,27.6281559 C35.0317657,27.5609946 35.6445721,27.5188091 36.2512047,27.5375049 C37.3745625,27.5721642 38.4803633,27.7264771 39.4800023,28.2990981 C40.1407045,28.6775696 40.6610956,29.1938154 41.0179751,29.8662436 C41.0570443,29.9398766 41.0929782,30.0309111 41.0863702,30.1102487 C41.0343745,30.735362 40.9825235,31.3609067 40.9099804,31.9839107 C40.7509063,33.3491408 40.4039147,34.6715621 39.9279949,35.9586051 C39.2147664,37.8874439 38.2123781,39.6569842 36.9205407,41.2643978 C35.2215645,43.3783257 33.1688921,45.0638305 30.7594849,46.3222065 C29.0403471,47.2201357 27.2216554,47.8372912 25.3151305,48.1843633 C24.5861296,48.317104 23.8412599,48.3679663 23.1019371,48.43949 C21.9389313,48.5520488 20.7771796,48.4772173 19.6166338,48.3867101 C19.4364335,48.3726163 19.2577767,48.3391076 19.0784446,48.3145633 C19.0774799,48.289156 19.0765153,48.2637009 19.0755023,48.2383416 C19.3120876,48.2383416 19.5487693,48.2426081 19.7852098,48.2376225 C21.5597679,48.2005664 23.2601429,47.8199855 24.9001296,47.1525429 C26.0090174,46.7012054 27.0347506,46.1044235 27.9520068,45.3449397 C29.215917,44.2984023 30.1925486,43.0426149 30.628724,41.4284421 C31.0880996,39.7283162 30.7071034,38.1959258 29.6891839,36.7954132 C28.8974795,35.7061629 27.769636,35.0543481 26.5589273,34.5558874 C25.2432626,34.0142344 23.8923392,33.5576237 22.5622526,33.0499109 C21.4490721,32.6249873 20.3723078,32.132423 19.4213364,31.3942716 C18.2699067,30.5004651 17.5620803,29.3453478 17.2681937,27.9316043 C17.2168733,27.6848188 17.1850874,27.4340544 17.1736079,27.1766746 Z M34.0185664,29.6745336 L30.4045212,32.7467069 C30.2444766,32.8827717 30.2285346,33.1196115 30.3690698,33.2754905 L30.4536693,33.3695094 C30.5940263,33.5253823 30.8288321,33.5515352 30.9777904,33.4277896 L31.2476909,33.2036943 L31.127745,36.6174649 C31.1203858,36.8269127 31.2850068,37.0023469 31.4953692,37.0096929 L32.8603927,37.0570687 C33.0707567,37.0643698 33.2472913,36.900731 33.2546504,36.6912833 L33.3385642,34.3030216 L35.0796668,34.3634499 L34.995753,36.7517116 C34.98537,36.9609023 35.1299305,37.1356853 35.3402944,37.1429864 L36.7868773,37.1931928 C36.9972412,37.2004939 37.1737759,37.0368551 37.181135,36.8274074 L37.2993867,33.4618579 C37.2993867,33.4618579 37.3694662,33.5273786 37.4558968,33.6084528 C37.54218,33.6893698 37.731343,33.6334552 37.8783485,33.4833211 L37.9813606,33.3782666 C38.1283608,33.2282845 38.1230327,32.9904022 37.969466,32.847079 L34.5862482,29.6877193 C34.4326815,29.5443962 34.1786109,29.5384689 34.0185664,29.6745336 Z" id="Combined-Shape" fill="#00B4B1"></path>
                    <path d="M16.3469824,35.6943222 C17.5619356,35.9798897 18.623217,36.5771509 19.5652169,37.3754167 C20.3823404,38.0679789 21.162324,38.8036375 21.971296,39.5058832 C22.5263669,39.9877094 23.1214234,40.4083665 23.835279,40.6461397 C24.5420442,40.8815639 25.2331336,40.8461855 25.9311685,40.6247593 C26.7684536,40.359182 27.4798974,39.877979 28.1618224,39.348023 C28.4818998,39.099272 28.7847579,38.8287092 29.1477631,38.5241103 C29.1251898,38.9066566 29.1258651,39.2443807 29.0821655,39.5763523 C28.8718193,41.1744179 28.2952363,42.6353325 27.3238621,43.9246287 C26.0913037,45.5605175 24.4296602,46.5676977 22.4566695,47.0890249 C21.4457922,47.356232 20.4121004,47.4808232 19.3703054,47.4696057 C17.3771532,47.4480815 15.4545183,47.0511537 13.6042818,46.3088317 C11.9903413,45.6612834 10.4903282,44.817764 9.15011258,43.7130777 C8.57748466,43.2410788 8.05299376,42.7114583 7.50800363,42.2065259 C7.4755425,42.1764687 7.455815,42.132845 7.45128106,42.0746961 C7.70957136,42.2763239 7.96467825,42.4821702 8.226779,42.6788124 C9.27185389,43.4629844 10.4560341,43.9229508 11.7492703,44.0575132 C13.0621375,44.1942327 14.3392637,43.9998436 15.5309683,43.4077597 C16.8108438,42.7718603 17.4712567,41.508355 17.1279308,40.0688687 C16.6880414,38.224401 15.614557,36.8657385 13.8786821,36.0674726 C13.4879427,35.8878005 13.0292905,35.8539083 12.6424097,35.7624902 C12.8966002,35.7141686 13.2106002,35.6399124 13.5289411,35.5967202 C14.4729669,35.4685815 15.4169444,35.4756764 16.3469824,35.6943222 Z M20.1678642,41.2693833 C19.9193682,41.2607587 19.7109319,41.4537733 19.7022482,41.7009185 L19.7022482,41.7009185 L19.6602401,42.8965068 L18.4565983,42.8547321 C18.2086179,42.8461254 18.0003354,43.0396583 17.9916757,43.2861203 L17.9916757,43.2861203 L17.9769429,43.7054302 C17.9682592,43.9525754 18.1626348,44.1597413 18.4104434,44.168342 L18.4104434,44.168342 L19.6140852,44.2101167 L19.5720771,45.405705 C19.5633934,45.6528502 19.757769,45.8600161 20.006265,45.8686407 L20.006265,45.8686407 L20.4281583,45.8832833 C20.6764825,45.8919019 20.8850966,45.6987225 20.8937803,45.4515773 L20.8937803,45.4515773 L20.9357884,44.255989 L22.1390865,44.2977518 C22.3872388,44.3063644 22.5958529,44.113185 22.6045366,43.8660398 L22.6045366,43.8660398 L22.6192694,43.4467299 C22.6279291,43.2002679 22.4333937,42.9927544 22.1852414,42.9841418 L22.1852414,42.9841418 L20.9819433,42.942379 L21.0239514,41.7467907 C21.032635,41.4996456 20.8380816,41.2926445 20.5897575,41.2840259 L20.5897575,41.2840259 Z" id="Combined-Shape" fill="#7FC80C"></path>
                    <g id="Group-15" transform="translate(11.761792, 26.506958)" fill="#0098B4">
                        <path d="M1.32408732,5.53321993 C0.622253358,5.58119545 -0.0150843224,4.8937748 0.000271936055,4.20556335 C0.0163695312,3.48134391 0.557862977,2.93964231 1.25895561,2.88845085 C2.04355451,2.83119655 2.68237486,3.48071126 2.69524235,4.19148702 C2.70810984,4.90537328 2.07034853,5.57645062 1.32408732,5.53321993" id="Fill-29"></path>
                        <path d="M4.11052157,0.0015014337 C4.11052157,2.66675341 6.39001463,6.10181918 10.9490008,10.3066988 C7.99035793,8.36236039 4.36766527,7.72843308 0.0809227764,8.40491685 C1.59135687,7.14760971 2.56086863,6.06376098 2.98945806,5.15337066 C3.6323422,3.78778517 3.89356331,-0.0873051374 4.11052157,0.0015014337 Z M3.36388799,5.98491912 C3.2595619,6.17842645 3.15704222,6.3685872 3.051273,6.56478384 C3.08458056,6.57828158 3.11007962,6.58948477 3.13618257,6.59905805 L3.13618257,6.59905805 L4.17009497,6.97941971 C4.18877828,6.98635311 4.20994904,7.007682 4.21459454,7.026065 C4.2237042,7.06210685 4.22258498,7.10077047 4.22463801,7.13839634 C4.23508317,7.33042022 4.24484682,7.52246815 4.25566959,7.71446933 C4.25849976,7.76464838 4.26427746,7.81465519 4.26956231,7.87459862 C4.42082305,7.82682158 4.56390002,7.78262303 4.70579566,7.73500946 C4.71750465,7.73107551 4.72716144,7.70411148 4.72755881,7.68759146 C4.72998033,7.58823341 4.72737733,7.48873579 4.73026298,7.38939395 C4.73721696,7.15057733 4.74439114,6.91172053 4.75605429,6.67310425 C4.7584312,6.62453072 4.74303492,6.60248226 4.70061281,6.58371324 C4.44368509,6.47007036 4.18774467,6.35426063 3.93143553,6.23926352 C3.74372455,6.15503991 3.55593532,6.07096909 3.36388799,5.98491912 Z M5.96322677,5.91572884 C5.66175335,6.13163887 5.36833444,6.3410587 5.07657689,6.55267805 C5.05980384,6.56483371 5.04939593,6.59451121 5.04799898,6.61676284 C5.03456982,6.83111481 5.02287505,7.0455752 5.0124303,7.2600912 C5.00625862,7.38705025 5.00324215,7.51415536 4.99853363,7.64898979 C5.11737197,7.61144608 5.22927857,7.57678284 5.3404473,7.5399284 C5.35203156,7.5360858 5.3659734,7.52007467 5.36735355,7.5083984 L5.36735355,7.5083984 L5.43977467,6.87068782 C5.44509447,6.82520799 5.44450563,6.77872026 5.48911107,6.74366887 C5.65467285,6.61355429 5.81298922,6.47407032 5.98324916,6.3503888 C6.06470032,6.2912131 6.06794504,6.23519254 6.03677318,6.153923 C6.00764147,6.07792894 5.98828682,5.99832826 5.96322677,5.91572884 Z M3.83312184,7.09531742 C3.68055846,7.06657675 3.54677362,7.10574003 3.44216384,7.22661755 C3.37589451,7.30319228 3.35302792,7.38925052 3.39179481,7.48032038 C3.43289784,7.57689139 3.5230796,7.60742561 3.60467044,7.613517 C3.73751848,7.6157993 3.8370708,7.57605075 3.91809342,7.49956052 C3.99329814,7.42851401 4.02923518,7.33921541 3.99958292,7.23566263 C3.97636585,7.15458714 3.90987471,7.10977001 3.83312184,7.09531742 Z M3.89824273,5.01089859 C3.79304815,5.20595481 3.69049122,5.39613819 3.58805106,5.58611029 C3.59537117,5.59334078 3.59880912,5.5986172 3.60371072,5.60131272 C4.03194607,5.83764408 4.4601291,6.0740813 4.88937482,6.30862945 C4.90335409,6.31625997 4.93282237,6.31091235 4.94739492,6.30085726 C5.24858585,6.09303681 5.5488033,5.88385439 5.84842873,5.67387366 C5.8601159,5.66569182 5.87352214,5.64448168 5.87043605,5.6336544 C5.83094792,5.49501545 5.7885994,5.35718585 5.74522163,5.21332648 C5.72011598,5.2270575 5.7026037,5.23601695 5.68567719,5.24595395 C5.45313358,5.38254676 5.21993429,5.51807582 4.98891016,5.65710247 C4.94965057,5.68073571 4.92314364,5.67855388 4.88697735,5.65467945 C4.65699238,5.50289189 4.42582876,5.35283381 4.1948698,5.20248378 C4.09754463,5.13912284 3.99977034,5.07644012 3.89824273,5.01089859 Z M5.15775773,4.86894376 C5.06769364,4.70207486 4.85008817,4.68552703 4.74968733,4.83276409 C4.65775476,4.96757941 4.67158327,5.15948216 4.78200304,5.28121684 C4.90472364,5.41652923 5.10538592,5.38814776 5.17887823,5.22273129 C5.19866674,5.17817545 5.20586944,5.12820319 5.22378975,5.06265753 C5.20479553,5.00510665 5.19159582,4.93164297 5.15775773,4.86894376 Z" id="Combined-Shape"></path>
                    </g>
                    <path d="M36.9592433,26.9597114 C34.9798376,27.0099985 33.196501,25.3234391 33.2888199,23.2110932 C33.3743861,21.2550735 34.8875187,19.8325094 36.7112267,19.7217723 C39.0538787,19.5794919 40.5846648,21.4934219 40.6280267,23.2562509 C40.6795883,25.3532087 38.8480665,27.0313789 36.9592433,26.9597114" id="Fill-13" fill="#00B4B1"></path>
                    <path d="M2.01306482,34.9734549 C2.46704607,35.4152178 2.85527313,35.8061762 3.25782975,36.181945 C4.10442938,36.972147 5.02758814,37.65257 6.20683001,37.8315075 C6.77775896,37.9180995 7.37122229,37.9290889 7.94844931,37.8885259 C9.21748204,37.7992872 10.4769232,37.7224189 11.670148,38.2859283 C12.1390944,38.5074426 12.5253569,38.8313138 12.7367757,39.3143301 C13.1034506,40.152057 12.6581364,41.1636007 11.7716105,41.5727406 C10.9399182,41.9565645 10.0871939,41.931939 9.21840653,41.7449464 C7.82994154,41.4462185 6.55426405,40.8966328 5.43459386,40.0222554 C4.22940856,39.081136 3.34906513,37.8781118 2.69059875,36.5109369 C2.45809009,36.0282083 2.25730292,35.5304052 2.01306482,34.9734549 Z M7.95751986,39.7944119 L7.93574921,39.8020646 C7.92248684,39.8107425 7.91431105,39.8253832 7.91386679,39.8412482 L7.91386679,39.8412482 L7.89432119,40.4009611 L7.90060718,40.45295 C7.96239836,40.6757604 8.4651463,40.8630631 9.08837999,40.8848269 C9.54259155,40.9006883 9.93718824,40.8228256 10.1514978,40.6975012 C10.2518029,40.6374853 10.3121265,40.5624923 10.3148142,40.485525 L10.3148142,40.485525 L10.3346336,39.9179732 L10.3298956,39.8952796 L10.3298956,39.8952796 L10.315179,39.8773961 L10.2938463,39.8684245 L10.2707956,39.870423 L9.12702003,40.2543752 L9.11003865,40.2569081 L9.11003865,40.2569081 L9.09327532,40.2531968 L7.98034802,39.7977486 L7.95751986,39.7944119 L7.95751986,39.7944119 Z M11.1191604,39.4848717 L11.0981017,39.4863456 C11.0802651,39.4914308 11.0669753,39.5064 11.0640115,39.5247437 L11.0640115,39.5247437 L11.0328482,39.7179049 L10.92921,40.3043437 L10.929983,40.3249318 L10.929983,40.3249318 L10.93923,40.3433318 C10.948061,40.3542527 10.9611938,40.3607868 10.9752146,40.3612359 L10.9752146,40.3612359 L11.1927147,40.3688312 L11.212875,40.3651511 L11.212875,40.3651511 L11.2297005,40.3534278 C11.2392251,40.343173 11.2438503,40.3292872 11.2423813,40.3153569 L11.2423813,40.3153569 L11.1597016,39.5276236 L11.1531594,39.5076648 L11.1531594,39.5076648 L11.1387185,39.4924364 L11.1191604,39.4848717 Z M9.17007022,38.5372792 L9.13585826,38.5423346 L7.13060141,39.2170668 L7.240713,39.2632321 L9.09134177,40.03041 L9.12511774,40.0378396 L9.12511774,40.0378396 L9.1593297,40.0327842 L10.9169119,39.4405452 L10.9510898,39.4208544 C10.9705505,39.4035256 10.9827102,39.3786632 10.9836593,39.3514839 C10.985083,39.3107148 10.9609806,39.2733867 10.9232871,39.2579834 L10.9232871,39.2579834 L9.20384619,38.5447088 L9.17007022,38.5372792 Z" id="Combined-Shape" fill="#00985A"></path>
                    <path d="M24.9427487,39.853382 C23.7712538,39.8301799 22.8931633,38.9675332 22.8771015,37.8332211 C22.8613292,36.724412 23.7177629,35.8530406 24.7716645,35.7766272 C26.0527941,35.6836752 27.0054054,36.6794461 27.0041525,37.7920902 C27.0028972,38.9204579 26.1447753,39.8198732 24.9427487,39.853382" id="Fill-17" fill="#7FC80C"></path>
                    <path d="M14.7163684,41.6236405 C14.0770819,41.6672642 13.4965436,41.0421989 13.5105314,40.4164145 C13.5251943,39.7578884 14.0184299,39.2653241 14.6570413,39.2187761 C15.3717168,39.1667153 15.9536055,39.7573131 15.9653263,40.403615 C15.977047,41.0527453 15.3961229,41.6629498 14.7163684,41.6236405" id="Fill-29" fill="#00985A"></path>
                </g>
                <path d="M51.479892,31.4609205 C53.1276581,31.4609205 54.6142296,31.263905 55.9396066,30.8698739 C57.2649837,30.4758429 58.3888676,29.8847964 59.3112584,29.0967344 C60.2336492,28.3086724 60.9455916,27.3146396 61.4470856,26.114636 C61.9485796,24.9146325 62.1993266,23.5086582 62.1993266,21.8967132 C62.1993266,20.2131261 61.9485796,18.7713308 61.4470856,17.5713273 C60.9455916,16.3713237 60.2291715,15.3862374 59.2978255,14.6160947 C58.3664795,13.8459432 57.2515508,13.2817624 55.9530395,12.9235524 C54.6545282,12.5653424 53.2082553,12.3862374 51.6142208,12.3862374 C50.8619797,12.3862374 49.9619771,12.4175807 48.9142128,12.4802675 C47.8664485,12.5429542 46.8589829,12.6638501 45.8918158,12.8429551 L45.8918158,12.8429551 L45.8918158,30.9773369 C46.8589829,31.1743524 47.8440604,31.3042036 48.8470484,31.3668903 C49.8500365,31.4295771 50.727651,31.4609205 51.479892,31.4609205 Z M51.694818,27.8609098 C51.336608,27.8609098 51.0276519,27.8564322 50.7679496,27.847477 C50.5082474,27.8385217 50.2798885,27.8250888 50.082873,27.8071783 L50.082873,27.8071783 L50.082873,16.0399795 C50.3515305,16.0041585 50.6380985,15.9817703 50.942577,15.9728151 C51.2470555,15.9638598 51.5425788,15.9593822 51.8291468,15.9593822 C53.9246753,15.9593822 55.4560231,16.4608762 56.4231902,17.4638643 C57.3903572,18.4668523 57.8739407,19.9444686 57.8739407,21.8967132 C57.8739407,23.7594052 57.3679691,25.219111 56.3560258,26.2758305 C55.3440825,27.3325501 53.7903466,27.8609098 51.694818,27.8609098 Z M69.4262136,31.2191287 L69.4262136,20.4190969 C69.6053186,20.3653654 69.8694985,20.3161115 70.2187532,20.2713352 C70.568008,20.226559 70.8680089,20.2041709 71.1187559,20.2041709 C71.6739814,20.2041709 72.1933859,20.2534247 72.6769694,20.3519325 C73.1605529,20.4504402 73.5814497,20.5444704 73.9396597,20.6340229 L73.9396597,20.6340229 L74.6113035,17.3295355 C74.3963775,17.239983 74.1366752,17.1638634 73.8321967,17.1011766 C73.5277182,17.0384899 73.2232397,16.9847584 72.9187612,16.9399821 C72.6142827,16.8952059 72.3098042,16.8593849 72.0053257,16.8325191 C71.7008471,16.8056534 71.4411449,16.7922205 71.2262189,16.7922205 C70.0262153,16.7922205 68.9381524,16.9041611 67.9620302,17.1280424 C66.9859079,17.3519236 66.1396367,17.5892378 65.4232167,17.8399848 L65.4232167,17.8399848 L65.4232167,31.2191287 L69.4262136,31.2191287 Z M78.1844483,31.5683835 C78.8292264,31.5683835 79.40684,31.3579351 79.9172893,30.9370383 C80.4277385,30.5161416 80.6829632,29.9027069 80.6829632,29.0967344 C80.6829632,28.2907619 80.4277385,27.6773272 79.9172893,27.2564305 C79.40684,26.8355337 78.8292264,26.6250853 78.1844483,26.6250853 C77.5396703,26.6250853 76.9620567,26.8355337 76.4516074,27.2564305 C75.9411582,27.6773272 75.6859335,28.2907619 75.6859335,29.0967344 C75.6859335,29.9027069 75.9411582,30.5161416 76.4516074,30.9370383 C76.9620567,31.3579351 77.5396703,31.5683835 78.1844483,31.5683835 Z" id="Dr." fill="#00B4B1" fill-rule="nonzero"></path>
                <path d="M94.7432423,31.5720655 C96.3730978,31.5720655 97.7432511,31.4601248 98.8537022,31.2362436 C99.9641532,31.0123623 100.770126,30.8019139 101.27162,30.6048984 L101.27162,30.6048984 L101.27162,21.3899459 L97.0805626,21.3899459 L97.0805626,27.8645918 C96.8298156,27.9183233 96.53877,27.9541443 96.2074257,27.9720548 C95.8760814,27.9899653 95.4775728,27.9989206 95.0118998,27.9989206 C94.1521958,27.9989206 93.3999547,27.851159 92.7551767,27.5556357 C92.1103987,27.2601124 91.5730837,26.8436933 91.1432317,26.3063783 C90.7133796,25.7690633 90.3909906,25.1287629 90.1760646,24.3854771 C89.9611386,23.6421913 89.8536756,22.8138307 89.8536756,21.9003951 C89.8536756,20.0197926 90.2880053,18.5376987 91.1566645,17.4541134 C92.0253238,16.3705281 93.4357757,15.8287355 95.3880203,15.8287355 C96.2656348,15.8287355 97.076085,15.9406761 97.8193707,16.1645573 C98.5626565,16.3884386 99.2208674,16.6526185 99.7940034,16.957097 L99.7940034,16.957097 L101.002962,13.5988781 C100.859678,13.5093256 100.622364,13.3839521 100.29102,13.2227576 C99.9596756,13.0615631 99.5387788,12.9048462 99.0283295,12.752607 C98.5178803,12.6003677 97.9089233,12.466039 97.2014585,12.3496207 C96.4939937,12.2332025 95.7014541,12.1749933 94.8238395,12.1749933 C93.5342835,12.1749933 92.3208471,12.3899193 91.1835303,12.8197714 C90.0462135,13.2496234 89.0566583,13.8809685 88.2148648,14.7138068 C87.3730713,15.5466451 86.7103828,16.563066 86.2267993,17.7630695 C85.7432157,18.9630731 85.501424,20.3421816 85.501424,21.9003951 C85.501424,23.4406982 85.7208276,24.8108515 86.1596349,26.010855 C86.5984421,27.2108586 87.220832,28.2228018 88.0268046,29.0466849 C88.8327771,29.8705679 89.8044217,30.4974354 90.9417385,30.9272874 C92.0790553,31.3571394 93.3462232,31.5720655 94.7432423,31.5720655 Z M110.244781,31.5989312 C112.698519,31.5989312 114.534345,31.1198253 115.752259,30.1616135 C116.970173,29.2034018 117.57913,27.8556366 117.57913,26.118318 C117.57913,25.222793 117.462712,24.4615967 117.229876,23.8347292 C116.997039,23.2078617 116.643307,22.6615914 116.168679,22.1959184 C115.69405,21.7302454 115.098526,21.3227815 114.382106,20.9735267 C113.665686,20.624272 112.823893,20.2705396 111.856726,19.9123296 C111.391053,19.7511351 110.965678,19.5944182 110.580602,19.4421789 C110.195527,19.2899397 109.855227,19.1197899 109.559704,18.9317297 C109.264181,18.7436694 109.035822,18.533221 108.874627,18.3003845 C108.713433,18.067548 108.632835,17.78098 108.632835,17.4406805 C108.632835,16.8675445 108.852239,16.4421701 109.291046,16.1645573 C109.729854,15.8869446 110.450751,15.7481382 111.453739,15.7481382 C112.349264,15.7481382 113.114938,15.8511236 113.750761,16.0570943 C114.386584,16.2630651 114.964197,16.5003792 115.483602,16.7690367 L115.483602,16.7690367 L116.692561,13.4645494 C116.101514,13.1421604 115.349273,12.8466371 114.435838,12.5779796 C113.522402,12.3093221 112.438817,12.1749933 111.185082,12.1749933 C110.128362,12.1749933 109.179106,12.3048445 108.337312,12.5645467 C107.495519,12.824249 106.779099,13.1958919 106.188052,13.6794754 C105.597006,14.1630589 105.140288,14.7496278 104.817899,15.4391821 C104.49551,16.1287363 104.334315,16.9033655 104.334315,17.7630695 C104.334315,18.6227735 104.486555,19.3526264 104.791033,19.9526282 C105.095512,20.55263 105.489543,21.0630792 105.973126,21.483976 C106.45671,21.9048728 107.00298,22.2541275 107.611937,22.5317403 C108.220894,22.8093531 108.829851,23.0556224 109.438808,23.2705484 C110.835827,23.7362215 111.820905,24.1705511 112.394041,24.5735374 C112.967177,24.9765236 113.253745,25.4824953 113.253745,26.0914523 C113.253745,26.3780203 113.208968,26.6377225 113.119416,26.8705591 C113.029863,27.1033956 112.868669,27.3048887 112.635832,27.4750384 C112.402996,27.6451882 112.09404,27.779517 111.708964,27.8780247 C111.323888,27.9765325 110.835827,28.0257863 110.244781,28.0257863 C109.062687,28.0257863 108.064177,27.9048905 107.249249,27.6630987 C106.434322,27.4213069 105.749245,27.1481718 105.194019,26.8436933 L105.194019,26.8436933 L104.011926,30.1750464 C104.262673,30.3183304 104.571629,30.4705697 104.938795,30.6317642 C105.30596,30.7929587 105.744767,30.9451979 106.255217,31.0884819 C106.765666,31.2317659 107.352235,31.3526618 108.014923,31.4511696 C108.677612,31.5496773 109.420897,31.5989312 110.244781,31.5989312 Z M124.994078,31.2228107 L124.994078,24.4257757 L127.062741,24.4257757 C127.420951,24.8556277 127.779161,25.3347336 128.137371,25.8630934 C128.495581,26.3914532 128.858268,26.9511563 129.225433,27.5422028 C129.592599,28.1332493 129.950809,28.7422064 130.300064,29.3690739 C130.649318,29.9959414 130.994095,30.6138537 131.334395,31.2228107 L131.334395,31.2228107 L136.035901,31.2228107 C135.713512,30.5422117 135.364258,29.8481798 134.988137,29.140715 C134.612017,28.4332502 134.222463,27.7526512 133.819477,27.0989179 C133.416491,26.4451847 133.009027,25.8183171 132.597085,25.2183154 C132.185144,24.6183136 131.791113,24.0854762 131.414992,23.6198032 C132.543354,23.1541302 133.407535,22.5138298 134.007537,21.698902 C134.607539,20.8839742 134.90754,19.8227771 134.90754,18.5153105 C134.90754,16.419782 134.164254,14.8750013 132.677682,13.8809685 C131.191111,12.8869357 129.050806,12.3899193 126.256768,12.3899193 C125.486616,12.3899193 124.61348,12.4257403 123.637357,12.4973824 C122.661235,12.5690244 121.716456,12.6943979 120.803021,12.8735029 L120.803021,12.8735029 L120.803021,31.2228107 L124.994078,31.2228107 Z M126.176171,21.0944226 L124.994078,21.0944226 L124.994078,16.0436615 C125.209004,16.025751 125.437363,16.0078405 125.679154,15.98993 C125.920946,15.9720195 126.194081,15.9630642 126.49856,15.9630642 C127.841847,15.9630642 128.858268,16.1556021 129.547822,16.5406779 C130.237377,16.9257536 130.582154,17.5750093 130.582154,18.4884448 C130.582154,19.4377013 130.241854,20.1093451 129.561255,20.5033761 C128.880656,20.8974071 127.752295,21.0944226 126.176171,21.0944226 L126.176171,21.0944226 Z" id="GSR" fill="#00B4B1" fill-rule="nonzero"></path>
                <path d="M48.9087784,45.4853611 C49.2646774,45.4853611 49.595155,45.4641766 49.9002113,45.4218077 C50.2052676,45.3794388 50.4721918,45.328596 50.700984,45.2692795 C50.9297762,45.209963 51.1204364,45.1485281 51.2729645,45.0849747 C51.4254927,45.0214213 51.531415,44.9684602 51.5907315,44.9260912 L51.5907315,44.9260912 L51.2729645,43.909237 C51.0865412,44.0024487 50.8069063,44.108371 50.4340598,44.227004 C50.0612132,44.345637 49.5909182,44.4049535 49.0231745,44.4049535 C48.531695,44.4049535 48.1016504,44.3202156 47.7330407,44.1507399 C47.3644311,43.9812642 47.0572564,43.7418798 46.8115166,43.4325866 C46.5657768,43.1232934 46.381472,42.7525653 46.2586021,42.3204023 C46.1357322,41.8882392 46.0742973,41.4094704 46.0742973,40.8840957 C46.0742973,40.3417734 46.144206,39.8524123 46.2840235,39.4160124 C46.4238409,38.9796125 46.6250933,38.6088844 46.8877807,38.3038281 C47.150468,37.9987718 47.468235,37.7657427 47.8410815,37.6047408 C48.2139281,37.4437389 48.6333804,37.3632379 49.0994386,37.3632379 C49.319757,37.3632379 49.537957,37.382304 49.7540385,37.420436 C49.97012,37.458568 50.169254,37.5072923 50.3514404,37.5666088 C50.5336268,37.6259253 50.6967471,37.6852418 50.8408015,37.7445583 C50.9848558,37.8038748 51.095015,37.8589544 51.1712791,37.9097971 L51.1712791,37.9097971 L51.5271781,36.8929429 C51.4763354,36.8590477 51.3831237,36.808205 51.2475432,36.7404147 C51.1119626,36.6726244 50.9361316,36.6048342 50.72005,36.5370439 C50.5039685,36.4692536 50.249755,36.4099371 49.9574094,36.3590944 C49.6650638,36.3082517 49.3367046,36.2828303 48.9723318,36.2828303 C48.3961144,36.2828303 47.8537922,36.3845157 47.3453651,36.5878866 C46.836938,36.7912574 46.3920642,37.0878399 46.0107439,37.477634 C45.6294236,37.8674282 45.3264857,38.3483155 45.1019304,38.920296 C44.8773751,39.4922765 44.7650975,40.1468764 44.7650975,40.8840957 C44.7650975,41.621315 44.8646645,42.2759149 45.0637984,42.8478954 C45.2629324,43.4198759 45.5446857,43.9007632 45.9090585,44.2905574 C46.2734312,44.6803515 46.7098312,44.976934 47.2182583,45.1803048 C47.7266854,45.3836756 48.2901921,45.4853611 48.9087784,45.4853611 Z M54.1074457,45.2947009 L54.1074457,39.8036881 C54.1498146,39.7867405 54.2197233,39.765556 54.3171719,39.7401347 C54.4146204,39.7147133 54.5247796,39.6914104 54.6476495,39.670226 C54.7705194,39.6490415 54.8997446,39.6299755 55.0353252,39.6130279 C55.1709057,39.5960803 55.3022494,39.5876066 55.4293562,39.5876066 C55.7428862,39.5876066 56.0055736,39.627857 56.2174182,39.708358 C56.4292628,39.788859 56.5987385,39.9180842 56.7258453,40.0960337 C56.8529521,40.2739832 56.9440453,40.5070123 56.9991249,40.795121 C57.0542045,41.0832296 57.0817443,41.4306548 57.0817443,41.8373965 L57.0817443,41.8373965 L57.0817443,45.2947009 L58.2638373,45.2947009 L58.2638373,41.583183 C58.2638373,41.1340724 58.2214684,40.7230938 58.1367305,40.3502472 C58.0519927,39.9774007 57.9058199,39.6575153 57.6982122,39.3905911 C57.4906044,39.1236668 57.213088,38.9160591 56.8656628,38.7677678 C56.5182376,38.6194766 56.0818376,38.545331 55.5564629,38.545331 C55.3107232,38.545331 55.062865,38.5686339 54.8128883,38.6152397 C54.5629116,38.6618455 54.3277641,38.7275174 54.1074457,38.8122552 L54.1074457,38.8122552 L54.1074457,35.4312149 L52.9253526,35.6345858 L52.9253526,45.2947009 L54.1074457,45.2947009 Z M62.2804115,45.4345184 C62.5430989,45.4345184 62.8079046,45.4239261 63.0748289,45.4027417 C63.3417531,45.3815572 63.5896113,45.3582543 63.8184035,45.3328329 C64.0471957,45.3074116 64.252685,45.2798718 64.4348714,45.2502135 C64.6170578,45.2205553 64.7589937,45.1972524 64.8606791,45.1803048 L64.8606791,45.1803048 L64.8606791,41.0493345 C64.8606791,40.676488 64.8183102,40.3354181 64.7335723,40.0261249 C64.6488345,39.7168318 64.5068986,39.4499076 64.3077646,39.2253522 C64.1086307,39.0007969 63.8459433,38.8270843 63.5197026,38.7042145 C63.1934619,38.5813446 62.7930755,38.5199096 62.3185435,38.5199096 C61.9033281,38.5199096 61.5177708,38.5516863 61.1618719,38.6152397 C60.8059729,38.6787931 60.5517593,38.7444649 60.3992312,38.8122552 L60.3992312,38.8122552 L60.5390486,39.7909774 C60.683103,39.7316609 60.901303,39.6744629 61.1936486,39.6193833 C61.4859941,39.5643037 61.827064,39.5367638 62.2168581,39.5367638 C62.5219144,39.5367638 62.7697726,39.5812512 62.9604328,39.670226 C63.1510929,39.7592007 63.3015026,39.8778337 63.4116618,40.0261249 C63.521821,40.1744162 63.5980851,40.3438919 63.640454,40.5345521 C63.682823,40.7252122 63.7040074,40.9179908 63.7040074,41.1128879 L63.7040074,41.1128879 L63.7040074,41.4433655 C63.6701123,41.4348917 63.6107958,41.4221811 63.5260579,41.4052335 C63.4413201,41.3882859 63.3417531,41.3692199 63.227357,41.3480354 C63.1129609,41.326851 62.9922095,41.3099034 62.8651027,41.2971927 C62.7379959,41.284482 62.615126,41.2781267 62.496493,41.2781267 C62.1236465,41.2781267 61.7677475,41.3162587 61.4287961,41.3925228 C61.0898447,41.4687869 60.7932622,41.5874199 60.5390486,41.7484218 C60.2848351,41.9094237 60.0835827,42.1212683 59.9352915,42.3839557 C59.7870002,42.646643 59.7128546,42.9601731 59.7128546,43.3245458 C59.7128546,43.7058662 59.776408,44.0321069 59.9035148,44.303268 C60.0306215,44.5744292 60.208571,44.7926291 60.4373632,44.9578679 C60.6661554,45.1231067 60.9373166,45.2438582 61.2508466,45.3201223 C61.5643767,45.3963863 61.907565,45.4345184 62.2804115,45.4345184 Z M62.420229,44.4430855 C61.9541708,44.4430855 61.5855611,44.3604661 61.3144,44.1952273 C61.0432389,44.0299885 60.9076583,43.7355244 60.9076583,43.3118352 C60.9076583,43.083043 60.9627379,42.8987381 61.0728971,42.7589207 C61.1830563,42.6191032 61.3207553,42.508944 61.4859941,42.4284431 C61.651233,42.3479421 61.8334193,42.2949809 62.0325533,42.2695596 C62.2316872,42.2441382 62.420229,42.2314275 62.5981785,42.2314275 C62.8693396,42.2314275 63.1002502,42.2462567 63.2909104,42.2759149 C63.4815706,42.3055732 63.6192696,42.3415868 63.7040074,42.3839557 L63.7040074,42.3839557 L63.7040074,44.3541107 C63.5599531,44.3880059 63.3798851,44.4113088 63.1638036,44.4240195 C62.9477221,44.4367301 62.6998639,44.4430855 62.420229,44.4430855 Z M68.0002165,45.2947009 L68.0002165,39.7401347 C68.0680068,39.7231871 68.2099427,39.6914104 68.4260242,39.6448046 C68.6421058,39.5981988 68.8603057,39.5748959 69.0806241,39.5748959 C69.4195756,39.5748959 69.697092,39.5981988 69.9131735,39.6448046 C70.1292551,39.6914104 70.2839016,39.7316609 70.3771133,39.765556 L70.3771133,39.765556 L70.5804841,38.7359911 C70.5296414,38.7190436 70.4512589,38.6999776 70.3453366,38.6787931 C70.2394143,38.6576086 70.1228997,38.6364242 69.9957929,38.6152397 C69.8686862,38.5940552 69.7394609,38.5771077 69.6081173,38.564397 C69.4767736,38.5516863 69.3602591,38.545331 69.2585736,38.545331 C68.7416727,38.545331 68.2756145,38.5898184 67.8603991,38.6787931 C67.4451836,38.7677678 67.0977584,38.8630979 66.8181235,38.9647833 L66.8181235,38.9647833 L66.8181235,45.2947009 L68.0002165,45.2947009 Z M72.3091363,37.4903447 C72.5209809,37.4903447 72.7010489,37.420436 72.8493401,37.2806185 C72.9976314,37.1408011 73.071777,36.9522594 73.071777,36.7149934 C73.071777,36.4777274 72.9976314,36.2891857 72.8493401,36.1493682 C72.7010489,36.0095508 72.5209809,35.939642 72.3091363,35.939642 C72.0972917,35.939642 71.9172237,36.0095508 71.7689325,36.1493682 C71.6206413,36.2891857 71.5464956,36.4777274 71.5464956,36.7149934 C71.5464956,36.9522594 71.6206413,37.1408011 71.7689325,37.2806185 C71.9172237,37.420436 72.0972917,37.4903447 72.3091363,37.4903447 Z M72.9065382,45.2947009 L72.9065382,38.6851484 L71.7244451,38.6851484 L71.7244451,45.2947009 L72.9065382,45.2947009 Z M77.1646152,45.4345184 C77.5459356,45.4345184 77.884887,45.390031 78.1814695,45.3010562 C78.4780519,45.2120815 78.6856597,45.1379359 78.8042927,45.0786194 L78.8042927,45.0786194 L78.5755005,44.0998972 C78.4907626,44.1337923 78.3403529,44.1909904 78.1242714,44.2714913 C77.9081899,44.3519923 77.6221996,44.3922428 77.2663007,44.3922428 C77.0629298,44.3922428 76.8849803,44.3668214 76.7324522,44.3159787 C76.5799241,44.265136 76.4528173,44.1782797 76.3511319,44.0554098 C76.2494464,43.9325399 76.1731824,43.7630642 76.1223397,43.5469827 C76.0714969,43.3309012 76.0460756,43.0576216 76.0460756,42.727144 L76.0460756,42.727144 L76.0460756,39.6765813 L78.5500791,39.6765813 L78.5500791,38.6851484 L76.0460756,38.6851484 L76.0460756,36.6387293 L74.8639826,36.8421002 L74.8639826,42.7398547 C74.8639826,43.1804915 74.8999961,43.5681672 74.9720233,43.9028817 C75.0440505,44.2375962 75.1690388,44.5193496 75.3469883,44.7481418 C75.5249378,44.976934 75.7600853,45.1485281 76.0524309,45.2629242 C76.3447765,45.3773203 76.7155046,45.4345184 77.1646152,45.4345184 Z M82.1472009,45.4345184 C82.4098883,45.4345184 82.6746941,45.4239261 82.9416183,45.4027417 C83.2085425,45.3815572 83.4564008,45.3582543 83.685193,45.3328329 C83.9139852,45.3074116 84.1194744,45.2798718 84.3016608,45.2502135 C84.4838472,45.2205553 84.6257831,45.1972524 84.7274685,45.1803048 L84.7274685,45.1803048 L84.7274685,41.0493345 C84.7274685,40.676488 84.6850996,40.3354181 84.6003618,40.0261249 C84.5156239,39.7168318 84.373688,39.4499076 84.1745541,39.2253522 C83.9754201,39.0007969 83.7127328,38.8270843 83.386492,38.7042145 C83.0602513,38.5813446 82.6598649,38.5199096 82.185333,38.5199096 C81.7701175,38.5199096 81.3845603,38.5516863 81.0286613,38.6152397 C80.6727623,38.6787931 80.4185488,38.7444649 80.2660206,38.8122552 L80.2660206,38.8122552 L80.4058381,39.7909774 C80.5498924,39.7316609 80.7680924,39.6744629 81.060438,39.6193833 C81.3527836,39.5643037 81.6938534,39.5367638 82.0836476,39.5367638 C82.3887038,39.5367638 82.636562,39.5812512 82.8272222,39.670226 C83.0178824,39.7592007 83.1682921,39.8778337 83.2784513,40.0261249 C83.3886105,40.1744162 83.4648745,40.3438919 83.5072435,40.5345521 C83.5496124,40.7252122 83.5707969,40.9179908 83.5707969,41.1128879 L83.5707969,41.1128879 L83.5707969,41.4433655 C83.5369017,41.4348917 83.4775852,41.4221811 83.3928474,41.4052335 C83.3081095,41.3882859 83.2085425,41.3692199 83.0941464,41.3480354 C82.9797503,41.326851 82.8589989,41.3099034 82.7318921,41.2971927 C82.6047853,41.284482 82.4819155,41.2781267 82.3632825,41.2781267 C81.9904359,41.2781267 81.6345369,41.3162587 81.2955855,41.3925228 C80.9566341,41.4687869 80.6600516,41.5874199 80.4058381,41.7484218 C80.1516245,41.9094237 79.9503721,42.1212683 79.8020809,42.3839557 C79.6537896,42.646643 79.579644,42.9601731 79.579644,43.3245458 C79.579644,43.7058662 79.6431974,44.0321069 79.7703042,44.303268 C79.897411,44.5744292 80.0753605,44.7926291 80.3041527,44.9578679 C80.5329449,45.1231067 80.804106,45.2438582 81.117636,45.3201223 C81.4311661,45.3963863 81.7743544,45.4345184 82.1472009,45.4345184 Z M82.2870184,44.4430855 C81.8209602,44.4430855 81.4523506,44.3604661 81.1811894,44.1952273 C80.9100283,44.0299885 80.7744477,43.7355244 80.7744477,43.3118352 C80.7744477,43.083043 80.8295273,42.8987381 80.9396865,42.7589207 C81.0498458,42.6191032 81.1875448,42.508944 81.3527836,42.4284431 C81.5180224,42.3479421 81.7002088,42.2949809 81.8993427,42.2695596 C82.0984767,42.2441382 82.2870184,42.2314275 82.4649679,42.2314275 C82.736129,42.2314275 82.9670397,42.2462567 83.1576998,42.2759149 C83.34836,42.3055732 83.486059,42.3415868 83.5707969,42.3839557 L83.5707969,42.3839557 L83.5707969,44.3541107 C83.4267425,44.3880059 83.2466746,44.4113088 83.030593,44.4240195 C82.8145115,44.4367301 82.5666533,44.4430855 82.2870184,44.4430855 Z M89.1889165,45.447229 C89.6973436,45.447229 90.154928,45.3667281 90.5616697,45.2057262 C90.9684113,45.0447242 91.3158365,44.815932 91.6039452,44.5193496 C91.8920539,44.2227671 92.1144908,43.8605128 92.2712558,43.4325866 C92.4280208,43.0046604 92.5064034,42.5237731 92.5064034,41.9899247 C92.5064034,41.4814976 92.4407315,41.0154394 92.3093879,40.5917501 C92.1780442,40.1680608 91.9852656,39.8036881 91.731052,39.4986318 C91.4768385,39.1935755 91.1654269,38.9563096 90.7968172,38.7868339 C90.4282075,38.6173582 90.0066367,38.5326203 89.5321048,38.5326203 C89.1507844,38.5326203 88.8139515,38.583463 88.5216059,38.6851484 C88.2292603,38.7868339 88.0110603,38.8842824 87.867006,38.977494 L87.867006,38.977494 L87.867006,35.4312149 L86.6849129,35.6345858 L86.6849129,45.1040407 C86.956074,45.1803048 87.3034992,45.2565689 87.7271885,45.3328329 C88.1508778,45.409097 88.6381204,45.447229 89.1889165,45.447229 Z M89.1762058,44.4049535 C88.8542019,44.4049535 88.5851593,44.3901243 88.3690777,44.3604661 C88.1529962,44.3308078 87.985639,44.2990311 87.867006,44.265136 L87.867006,44.265136 L87.867006,40.083323 C88.0110603,39.96469 88.218668,39.8502939 88.4898292,39.7401347 C88.7609903,39.6299755 89.0575728,39.5748959 89.3795766,39.5748959 C89.718528,39.5748959 90.0087552,39.6363308 90.250258,39.7592007 C90.4917609,39.8820706 90.6887764,40.0515463 90.8413046,40.2676278 C90.9938327,40.4837093 91.1039919,40.7400413 91.1717822,41.0366238 C91.2395725,41.3332063 91.2734676,41.6509733 91.2734676,41.9899247 C91.2734676,42.7610391 91.0828074,43.3563225 90.7014871,43.7757749 C90.3201668,44.1952273 89.8117397,44.4049535 89.1762058,44.4049535 Z M96.1543679,45.4218077 L96.3196067,44.4303748 C96.1331834,44.4049535 95.9764184,44.3731768 95.8493116,44.3350447 C95.7222048,44.2969127 95.6205194,44.2397146 95.5442554,44.1634506 C95.4679913,44.0871865 95.4129117,43.9855011 95.3790165,43.8583943 C95.3451214,43.7312875 95.3281738,43.5702856 95.3281738,43.3753885 L95.3281738,43.3753885 L95.3281738,35.4312149 L94.1460808,35.6345858 L94.1460808,43.5660487 C94.1460808,44.1931088 94.2986089,44.6549301 94.6036652,44.9515126 C94.9087215,45.2480951 95.4256224,45.4048601 96.1543679,45.4218077 L96.1543679,45.4218077 Z M100.603105,45.447229 C101.06069,45.447229 101.46955,45.4048601 101.829686,45.3201223 C102.189821,45.2353844 102.441917,45.1548834 102.585971,45.0786194 L102.585971,45.0786194 L102.420732,44.0871865 C102.276678,44.1549768 102.062715,44.2248855 101.778843,44.2969127 C101.494971,44.3689399 101.145427,44.4049535 100.730212,44.4049535 C99.9929926,44.4049535 99.4506703,44.227004 99.1032451,43.871105 C98.75582,43.515206 98.556686,42.9940682 98.5058433,42.3076916 L98.5058433,42.3076916 L103.030845,42.3076916 C103.039318,42.2399013 103.043555,42.1657557 103.043555,42.0852548 L103.043555,42.0852548 L103.043555,41.8882392 C103.043555,40.752752 102.806289,39.907492 102.331757,39.352459 C101.857225,38.7974261 101.175086,38.5199096 100.285338,38.5199096 C99.9040179,38.5199096 99.5311713,38.5919368 99.1667985,38.7359911 C98.8024258,38.8800455 98.4804219,39.096127 98.200787,39.3842357 C97.9211521,39.6723444 97.6965968,40.0345987 97.5271211,40.4709987 C97.3576454,40.9073986 97.2729075,41.4179442 97.2729075,42.0026353 C97.2729075,42.5025887 97.3385794,42.9622915 97.469923,43.3817439 C97.6012667,43.8011963 97.8025191,44.1634506 98.0736802,44.4685068 C98.3448414,44.7735631 98.6901481,45.0129475 99.1096005,45.1866601 C99.5290529,45.3603727 100.026888,45.447229 100.603105,45.447229 Z M101.81062,41.3543908 L98.5312646,41.3543908 C98.556686,41.1255986 98.6096472,40.9010433 98.6901481,40.6807249 C98.7706491,40.4604064 98.8829267,40.2655094 99.0269811,40.0960337 C99.1710354,39.926558 99.3468665,39.788859 99.5544742,39.6829366 C99.7620819,39.5770143 100.001466,39.5240532 100.272628,39.5240532 C100.755633,39.5240532 101.134835,39.6956473 101.410233,40.0388356 C101.685631,40.3820239 101.819093,40.8205423 101.81062,41.3543908 L101.81062,41.3543908 Z M110.873333,45.2947009 L110.873333,37.5538981 L113.644261,37.5538981 L113.644261,36.4862012 L106.869469,36.4862012 L106.869469,37.5538981 L109.640397,37.5538981 L109.640397,45.2947009 L110.873333,45.2947009 Z M116.046579,45.2947009 L116.046579,39.7401347 C116.114369,39.7231871 116.256305,39.6914104 116.472386,39.6448046 C116.688468,39.5981988 116.906668,39.5748959 117.126986,39.5748959 C117.465938,39.5748959 117.743454,39.5981988 117.959536,39.6448046 C118.175617,39.6914104 118.330264,39.7316609 118.423475,39.765556 L118.423475,39.765556 L118.626846,38.7359911 C118.576004,38.7190436 118.497621,38.6999776 118.391699,38.6787931 C118.285776,38.6576086 118.169262,38.6364242 118.042155,38.6152397 C117.915048,38.5940552 117.785823,38.5771077 117.654479,38.564397 C117.523136,38.5516863 117.406621,38.545331 117.304936,38.545331 C116.788035,38.545331 116.321977,38.5898184 115.906761,38.6787931 C115.491546,38.7677678 115.144121,38.8630979 114.864486,38.9647833 L114.864486,38.9647833 L114.864486,45.2947009 L116.046579,45.2947009 Z M122.414628,45.4345184 C122.999319,45.4345184 123.514102,45.3963863 123.958976,45.3201223 C124.403849,45.2438582 124.761867,45.171831 125.033028,45.1040407 L125.033028,45.1040407 L125.033028,38.6851484 L123.850935,38.6851484 L123.850935,44.265136 C123.808566,44.2820836 123.738657,44.2969127 123.641209,44.3096234 C123.54376,44.322334 123.435719,44.3350447 123.317086,44.3477554 C123.198453,44.3604661 123.071347,44.3710583 122.935766,44.3795321 C122.800185,44.3880059 122.668842,44.3922428 122.541735,44.3922428 C121.940096,44.3922428 121.51217,44.2185302 121.257957,43.871105 C121.003743,43.5236798 120.876636,42.9474624 120.876636,42.1424528 L120.876636,42.1424528 L120.876636,38.6851484 L119.694543,38.6851484 L119.694543,42.3966664 C119.694543,42.845777 119.741149,43.2546371 119.834361,43.6232468 C119.927572,43.9918564 120.0801,44.3117418 120.291945,44.5829029 C120.50379,44.8540641 120.783425,45.0637903 121.13085,45.2120815 C121.478275,45.3603727 121.906201,45.4345184 122.414628,45.4345184 Z M128.604728,45.447229 C129.443633,45.447229 130.089759,45.290464 130.543107,44.976934 C130.996454,44.6634039 131.223128,44.2015826 131.223128,43.5914701 C131.223128,43.27794 131.176522,43.0131342 131.083311,42.7970527 C130.990099,42.5809712 130.856637,42.3966664 130.682924,42.2441382 C130.509212,42.0916101 130.299485,41.958148 130.053746,41.8437519 C129.808006,41.7293558 129.528371,41.6128412 129.214841,41.4942082 C128.977575,41.4094704 128.774204,41.3289694 128.604728,41.2527054 C128.435253,41.1764413 128.293317,41.0938219 128.178921,41.0048471 C128.064525,40.9158724 127.979787,40.8163054 127.924707,40.7061462 C127.869627,40.595987 127.842088,40.4688802 127.842088,40.3248259 C127.842088,40.045191 127.964958,39.8397017 128.210697,39.708358 C128.456437,39.5770143 128.744546,39.5113425 129.075023,39.5113425 C129.456344,39.5113425 129.782585,39.5473561 130.053746,39.6193833 C130.324907,39.6914104 130.524041,39.7613192 130.651147,39.8291094 L130.651147,39.8291094 L130.867229,38.8122552 C130.799439,38.7868339 130.704109,38.7571756 130.581239,38.7232805 C130.458369,38.6893853 130.316433,38.6576086 130.155431,38.6279504 C129.994429,38.5982921 129.820717,38.5728708 129.634293,38.5516863 C129.44787,38.5305019 129.261447,38.5199096 129.075023,38.5199096 C128.32933,38.5199096 127.740402,38.6915038 127.308239,39.0346921 C126.876076,39.3778804 126.659995,39.8418201 126.659995,40.4265113 C126.659995,40.7230938 126.710837,40.9730704 126.812523,41.1764413 C126.914208,41.3798121 127.049789,41.5535247 127.219264,41.6975791 C127.38874,41.8416334 127.589993,41.9666218 127.823022,42.0725441 C128.056051,42.1784664 128.299672,42.2822703 128.553886,42.3839557 C129.07926,42.5958003 129.456344,42.7864605 129.685136,42.9559362 C129.913928,43.1254119 130.028324,43.3542041 130.028324,43.6423128 C130.028324,43.9219477 129.91181,44.1253185 129.678781,44.2524253 C129.445752,44.3795321 129.087734,44.4430855 128.604728,44.4430855 C128.113249,44.4430855 127.719218,44.3922428 127.422635,44.2905574 C127.126053,44.1888719 126.909971,44.1126079 126.774391,44.0617652 L126.774391,44.0617652 L126.558309,45.0786194 C126.676942,45.1294621 126.901498,45.2036077 127.231975,45.3010562 C127.562453,45.3985048 128.020037,45.447229 128.604728,45.447229 Z M134.960067,45.4345184 C135.341388,45.4345184 135.680339,45.390031 135.976921,45.3010562 C136.273504,45.2120815 136.481112,45.1379359 136.599745,45.0786194 L136.599745,45.0786194 L136.370953,44.0998972 C136.286215,44.1337923 136.135805,44.1909904 135.919723,44.2714913 C135.703642,44.3519923 135.417652,44.3922428 135.061753,44.3922428 C134.858382,44.3922428 134.680432,44.3668214 134.527904,44.3159787 C134.375376,44.265136 134.248269,44.1782797 134.146584,44.0554098 C134.044898,43.9325399 133.968634,43.7630642 133.917792,43.5469827 C133.866949,43.3309012 133.841528,43.0576216 133.841528,42.727144 L133.841528,42.727144 L133.841528,39.6765813 L136.345531,39.6765813 L136.345531,38.6851484 L133.841528,38.6851484 L133.841528,36.6387293 L132.659435,36.8421002 L132.659435,42.7398547 C132.659435,43.1804915 132.695448,43.5681672 132.767475,43.9028817 C132.839503,44.2375962 132.964491,44.5193496 133.14244,44.7481418 C133.32039,44.976934 133.555537,45.1485281 133.847883,45.2629242 C134.140229,45.3773203 134.510957,45.4345184 134.960067,45.4345184 Z" id="CharitableTrust" fill="#29486D" fill-rule="nonzero"></path>
            </g>
        </g>
    </g>
</svg>