<?xml version="1.0" encoding="UTF-8"?>
<svg width="30px" height="30px" viewBox="0 0 30 30" version="1.1" xmlns="http://www.w3.org/2000/svg" xmlns:xlink="http://www.w3.org/1999/xlink">
    <title>Group 19</title>
    <g id="Page-1" stroke="none" stroke-width="1" fill="none" fill-rule="evenodd">
        <g id="4_GSR-CT_Website" transform="translate(-144.000000, -440.000000)" fill-rule="nonzero">
            <g id="Group" transform="translate(144.000000, 241.000000)">
                <g id="Group-19" transform="translate(0.000000, 199.000000)">
                    <path d="M29.2188927,7.38317757 C29.2188927,7.38317757 28.2543598,2.77258567 24.0850885,1.15264798 C22.1249088,0.404984424 18.5468028,0.031152648 15.0309249,0 C11.4839329,0.031152648 7.905827,0.404984424 5.94564724,1.15264798 C1.776376,2.77258567 0.8118431,7.38317757 0.8118431,7.38317757 C0.189563811,10 -0.0282339401,12.6479751 0.0028800244,14.9844237 C0.0028800244,17.3520249 0.189563811,20 0.8118431,22.6168224 C0.8118431,22.6168224 1.776376,27.2274143 5.94564724,28.847352 C7.905827,29.5950156 11.4839329,29.9688474 14.9998109,30 C18.5156889,29.9688474 22.0937948,29.6261682 24.0539746,28.847352 C28.2232458,27.2274143 29.1877787,22.6168224 29.1877787,22.6168224 C29.810058,20 30.0278557,17.3520249 29.9967418,15.0155763 C30.0278557,12.6479751 29.8411719,10 29.2188927,7.38317757 Z" id="Combined-Shape" fill="#00B4B1"></path>
                    <path d="M20.0989909,9.89672978 L9.60206896,9.89672978 C8.56884839,9.89672978 7.74526678,10.8205318 7.74526678,11.9422914 L7.74526678,18.9037997 C7.74526678,20.0420558 8.5838226,20.9493614 9.60206896,20.9493614 L20.0989909,20.9493614 C21.1322115,20.9493614 21.9557931,20.0255593 21.9557931,18.9037997 L21.9557931,11.9422914 C21.9557931,10.8040354 21.1172373,9.89672978 20.0989909,9.89672978 Z M19.5599193,18.4254022 C19.4700741,18.5408775 19.3502804,18.5903669 19.2304867,18.5903669 C19.1256672,18.5903669 19.0208477,18.5573739 18.9459767,18.4748916 L16.415335,16.0664077 L15.1874497,17.2376567 C14.9927849,17.4356143 14.6933007,17.4356143 14.4836618,17.2376567 L13.2557765,16.0664077 L10.740109,18.4748916 C10.53047,18.6728492 10.1860632,18.6068633 10.0512953,18.3099269 C9.96145002,18.1119694 10.0213469,17.8645224 10.171089,17.7325507 L12.581937,15.4230456 L10.171089,13.1300369 C10.0063727,12.9650723 9.94647581,12.7011288 10.0662695,12.5031713 C10.2160116,12.2392278 10.53047,12.1897384 10.7251348,12.387696 L14.7382234,16.2148759 C14.7981202,16.2643653 14.8729913,16.2643653 14.9328881,16.2148759 L18.9459767,12.387696 C19.1406414,12.1897384 19.4550998,12.2392278 19.604842,12.5031713 C19.7246356,12.7011288 19.6647388,12.9815687 19.5000225,13.1300369 L17.0891745,15.4230456 L19.5149967,17.7490471 C19.7096614,17.9140118 19.7246356,18.2109482 19.5599193,18.4254022 Z" id="Shape" fill="#FFFFFF"></path>
                </g>
            </g>
        </g>
    </g>
</svg>