<?xml version="1.0" encoding="UTF-8"?>
<svg width="30px" height="30px" viewBox="0 0 30 30" version="1.1" xmlns="http://www.w3.org/2000/svg" xmlns:xlink="http://www.w3.org/1999/xlink">
    <title>Group 8</title>
    <g id="Page-1" stroke="none" stroke-width="1" fill="none" fill-rule="evenodd">
        <g id="4_GSR-CT_Website" transform="translate(-391.000000, -440.000000)" fill-rule="nonzero">
            <g id="Group" transform="translate(144.000000, 241.000000)">
                <g id="Group-6" transform="translate(0.000000, 199.000000)">
                    <g id="Group-8" transform="translate(247.000000, 0.000000)">
                        <path d="M29.2188927,7.38317757 C29.2188927,7.38317757 28.2543598,2.77258567 24.0850885,1.15264798 C22.1249088,0.404984424 18.5468028,0.031152648 15.0309249,0 C11.4839329,0.031152648 7.905827,0.404984424 5.94564724,1.15264798 C1.776376,2.77258567 0.8118431,7.38317757 0.8118431,7.38317757 C0.189563811,10 -0.0282339401,12.6479751 0.0028800244,14.9844237 C0.0028800244,17.3520249 0.189563811,20 0.8118431,22.6168224 C0.8118431,22.6168224 1.776376,27.2274143 5.94564724,28.847352 C7.905827,29.5950156 11.4839329,29.9688474 14.9998109,30 C18.5156889,29.9688474 22.0937948,29.6261682 24.0539746,28.847352 C28.2232458,27.2274143 29.1877787,22.6168224 29.1877787,22.6168224 C29.810058,20 30.0278557,17.3520249 29.9967418,15.0155763 C30.0278557,12.6479751 29.8411719,10 29.2188927,7.38317757 Z" id="Combined-Shape" fill="#29486D"></path>
                        <path d="M15.0674513,18.9432392 C15.9025468,18.9432392 16.7122489,19.053671 17.482699,19.2604816 C17.5499648,19.2785459 17.5921343,19.3454726 17.5797347,19.4137992 C17.3376858,20.7484572 16.9666973,21.8430027 16.5385194,22.6164829 C16.5194472,22.6509424 16.4860034,22.6752525 16.4472918,22.6830328 C15.9979076,22.7733004 15.5363129,22.8199284 15.0674513,22.8199284 C14.5985897,22.8199284 14.136995,22.7733004 13.6876107,22.6830597 C13.6488991,22.6752794 13.6154553,22.6509693 13.5963832,22.6165099 C13.1682052,21.8430027 12.7972167,20.7484572 12.5551679,19.4138262 C12.5427683,19.3454995 12.5849377,19.2785459 12.6522035,19.2605085 C13.4226537,19.053671 14.2323557,18.9432392 15.0674513,18.9432392 Z M18.535734,19.6219887 L18.5836971,19.6321322 C19.1153942,19.8495499 19.6224811,20.1148877 20.0996901,20.4224384 C20.1703327,20.4679626 20.1830565,20.5661451 20.125759,20.627526 C20.0708658,20.6862955 20.014865,20.7442844 19.9575945,20.8013578 C19.3645748,21.3923645 18.6826508,21.86244 17.9420515,22.1998735 C17.8319949,22.2500281 17.7173189,22.1405117 17.7608391,22.02798 L17.7608391,22.02798 C18.0260663,21.340783 18.2396149,20.5674104 18.399432,19.7310416 C18.4153975,19.6474505 18.5047071,19.5998265 18.5836971,19.6321322 Z M11.5512324,19.6321053 C11.6302225,19.5997996 11.719532,19.6474236 11.7354975,19.7310147 C11.8953146,20.5673835 12.1088903,21.3407561 12.3717943,22.0219765 L12.3717943,22.0219765 C12.4176107,22.1404847 12.3029346,22.2500012 12.192878,22.1998465 C11.4522788,21.8624131 10.7703548,21.3923376 10.1773621,20.8013309 C10.1200916,20.7442574 10.0640908,20.6862686 10.0091976,20.6274991 C9.95187305,20.5661182 9.96456981,20.4679356 10.0352394,20.4224115 C10.5124485,20.1148608 11.0195354,19.8495499 11.5512324,19.6321053 Z M11.2656634,16.3588066 C11.3390345,16.3588066 11.3986552,16.4172531 11.4004922,16.4903449 C11.4184838,17.2118667 11.4711618,17.9167242 11.5562031,18.5924257 C11.5640103,18.654372 11.5282162,18.7130877 11.469649,18.7352171 C11.3502995,18.7803105 11.2315983,18.8276654 11.1135995,18.8774162 C10.5383553,19.1198708 9.99120598,19.4123724 9.47504221,19.7522288 C9.41226079,19.7935533 9.32808398,19.7765927 9.28664392,19.7140273 C8.65310266,18.757535 8.27152453,17.6605127 8.17602869,16.5050709 C8.16951823,16.4264064 8.23157026,16.3588066 8.31077643,16.3588066 L8.31077643,16.3588066 Z M21.8241261,16.3587528 C21.9033323,16.3587528 21.9653843,16.4263526 21.9588739,16.505017 C21.863378,17.6604858 21.4817999,18.7575081 20.8482586,19.7139734 C20.8067916,19.7765389 20.7226418,19.7934994 20.6598603,19.752175 C20.1436966,19.4123724 19.5965473,19.1198708 19.0213031,18.8773893 C18.9033042,18.8276385 18.7846031,18.7802836 18.6652535,18.7351902 C18.6066863,18.7130608 18.5708923,18.6543451 18.5786994,18.5923988 C18.6637137,17.9167242 18.7164188,17.2118398 18.7344103,16.4903179 C18.7362203,16.4172262 18.7958681,16.3587528 18.8692391,16.3587528 L18.8692391,16.3587528 Z M17.7345271,16.3587797 C17.8103294,16.3587797 17.871571,16.4210221 17.8696711,16.4965368 C17.8534984,17.1196338 17.8111398,17.7148941 17.7467105,18.2777678 C17.7374446,18.3587475 17.6589408,18.4134519 17.5797076,18.3933416 C16.7641975,18.1862887 15.9237801,18.0817527 15.0674513,18.0817527 C14.2111224,18.0817527 13.370705,18.1862887 12.5551949,18.3933416 C12.4759347,18.4134519 12.3974579,18.3587475 12.388192,18.2777678 C12.3237627,17.714921 12.2814041,17.1196607 12.2652315,16.4965368 C12.2633315,16.4210221 12.3245731,16.3587797 12.4003755,16.3587797 L12.4003755,16.3587797 Z M17.5797076,13.4627044 C17.6589678,13.4425941 17.7374446,13.4972985 17.7467105,13.5782782 C17.8111128,14.141152 17.8534984,14.7364122 17.8696441,15.3595362 C17.871544,15.4350508 17.8103024,15.4972932 17.7345,15.4972932 L17.7345,15.4972932 L12.4003755,15.4972932 C12.3245461,15.4972932 12.2633315,15.4350777 12.2652315,15.3595362 C12.2814041,14.7364391 12.3237627,14.1411789 12.388192,13.5783052 C12.3974579,13.4973254 12.4759617,13.442621 12.5551949,13.4627314 C13.370705,13.6697843 14.2111224,13.7743203 15.0674513,13.7743203 C15.9237801,13.7743203 16.7641975,13.6697843 17.5797076,13.4627044 Z M20.6598603,12.103871 C20.7226418,12.0625466 20.8068186,12.0794802 20.8482586,12.1420726 C21.4818269,13.0985649 21.863378,14.1955871 21.9588739,15.351029 C21.9653843,15.4296935 21.9033323,15.4972932 21.8241261,15.4972932 L21.8241261,15.4972932 L18.8692391,15.4972932 C18.7958681,15.4972932 18.7362203,15.4388468 18.7344103,15.3657281 C18.7164188,14.6442062 18.6637407,13.9393488 18.5786994,13.2636472 C18.5708923,13.201701 18.6066863,13.1429853 18.6652535,13.1208558 C18.7846031,13.0757624 18.9033042,13.0284076 19.0213031,12.9786567 C19.5965473,12.7362021 20.1436966,12.4437005 20.6598603,12.103871 Z M9.28664392,12.1420726 C9.32811099,12.0795071 9.41226079,12.0625466 9.47504221,12.103871 C9.99120598,12.4436736 10.5383553,12.7361752 11.1135995,12.9786567 C11.2315983,13.0284076 11.3502995,13.0757624 11.469649,13.1208558 C11.5282162,13.1429853 11.5640103,13.201701 11.5562031,13.2636472 C11.4660291,13.9803501 11.4122164,14.7298972 11.3976017,15.4972932 L11.3976017,15.4972932 L8.31077643,15.4972932 C8.23157026,15.4972932 8.16951823,15.4296935 8.17602869,15.351029 C8.27152453,14.1955871 8.65310266,13.0985649 9.28664392,12.1420726 Z M15.0674513,9.03614458 C15.5363129,9.03614458 15.9979076,9.08277253 16.4472918,9.17301324 C16.4860034,9.18079354 16.5194472,9.20510362 16.5385194,9.23956307 C16.9666973,10.0130703 17.3376858,11.1076158 17.5797347,12.4422468 C17.5921343,12.5105734 17.5499648,12.5775271 17.482699,12.5955644 C16.7122489,12.802402 15.9025468,12.9128338 15.0674513,12.9128338 C14.2323557,12.9128338 13.4226537,12.802402 12.6522035,12.5955914 C12.5849377,12.5775271 12.5427683,12.5106003 12.5551679,12.4422737 C12.7972167,11.1076158 13.1682052,10.0130703 13.5963832,9.23959 C13.6154553,9.20513054 13.6488991,9.18082047 13.6876107,9.17304017 C14.136995,9.08277253 14.5985897,9.03614458 15.0674513,9.03614458 Z M17.8950493,9.6440506 L17.9420245,9.6562264 C18.6826238,9.99365989 19.3645478,10.4637354 19.9575405,11.054742 C20.0148109,11.1118155 20.0708118,11.1698043 20.125705,11.2285738 C20.1830295,11.2899548 20.1703327,11.3881373 20.0996631,11.4336615 C19.6224541,11.7412121 19.1153671,12.0065231 18.5836701,12.2239676 C18.50468,12.2562734 18.4153705,12.2086493 18.399405,12.1250582 C18.2395879,11.2886894 18.0260122,10.5153169 17.7631083,9.83409644 L17.7631083,9.83409644 C17.7172919,9.7155882 17.8319679,9.60607173 17.9420245,9.6562264 Z M12.192851,9.65619948 C12.3029076,9.60604481 12.4175836,9.71556128 12.3740635,9.82809295 L12.3740635,9.82809295 C12.1088363,10.51529 11.8952876,11.2886625 11.7354705,12.1250313 C11.719505,12.2086224 11.6301955,12.2562465 11.5512054,12.2239407 C11.0195084,12.0065231 10.5124214,11.7411852 10.0352124,11.4336345 C9.96456981,11.3881104 9.95184603,11.2899278 10.0091435,11.2285469 C10.0640368,11.1697774 10.1200376,11.1117886 10.1773081,11.0547151 C10.7703548,10.4637354 11.4522788,9.99365989 12.192851,9.65619948 Z" id="Combined-Shape" fill="#FFFFFF"></path>
                    </g>
                </g>
            </g>
        </g>
    </g>
</svg>